<svg xmlns="http://www.w3.org/2000/svg" xmlns:xlink="http://www.w3.org/1999/xlink" viewBox="0 0 24 30" version="1.1" x="0px" y="0px"><title>icon/backspace</title><desc>Created with Sketch.</desc><g stroke="none" stroke-width="1" fill="none" fill-rule="evenodd"><path d="M13.5,10.7928932 L15.1464466,9.14644661 C15.3417088,8.95118446 15.6582912,8.95118446 15.8535534,9.14644661 C16.0488155,9.34170876 16.0488155,9.65829124 15.8535534,9.85355339 L14.2071068,11.5 L15.8535534,13.1464466 C16.0488155,13.3417088 16.0488155,13.6582912 15.8535534,13.8535534 C15.6582912,14.0488155 15.3417088,14.0488155 15.1464466,13.8535534 L13.5,12.2071068 L11.8535534,13.8535534 C11.6582912,14.0488155 11.3417088,14.0488155 11.1464466,13.8535534 C10.9511845,13.6582912 10.9511845,13.3417088 11.1464466,13.1464466 L12.7928932,11.5 L11.1464466,9.85355339 C10.9511845,9.65829124 10.9511845,9.34170876 11.1464466,9.14644661 C11.3417088,8.95118446 11.6582912,8.95118446 11.8535534,9.14644661 L13.5,10.7928932 L13.5,10.7928932 Z M20.5,18 L7.5,18 C7.36739176,18 7.2402148,17.9473216 7.14644661,17.8535534 L1.14644661,11.8535534 C0.951184464,11.6582912 0.951184464,11.3417088 1.14644661,11.1464466 L7.14644661,5.14644661 C7.2402148,5.05267842 7.36739176,5 7.5,5 L20.5,5 C20.7761424,5 21,5.22385763 21,5.5 L21,17.5 C21,17.7761424 20.7761424,18 20.5,18 Z M20,17 L20,6 L7.70710678,6 L2.20710678,11.5 L7.70710678,17 L20,17 Z" fill="#000000" fill-rule="nonzero"/></g><text x="0" y="39" fill="#000000" font-size="5px" font-weight="bold" font-family="'Helvetica Neue', Helvetica, Arial-Unicode, Arial, Sans-serif">Created by Travis Avery</text><text x="0" y="44" fill="#000000" font-size="5px" font-weight="bold" font-family="'Helvetica Neue', Helvetica, Arial-Unicode, Arial, Sans-serif">from the Noun Project</text></svg>